<?xml version="1.0" standalone="no"?>
<!DOCTYPE svg PUBLIC "-//W3C//DTD SVG 20010904//EN"
 "http://www.w3.org/TR/2001/REC-SVG-20010904/DTD/svg10.dtd">
<svg version="1.0" xmlns="http://www.w3.org/2000/svg"
 width="922.000000pt" height="922.000000pt" viewBox="0 0 922.000000 922.000000"
 preserveAspectRatio="xMidYMid meet">
<metadata>
Created by potrace 1.11, written by Peter Selinger 2001-2013
</metadata>
<g transform="translate(0.000000,922.000000) scale(0.100000,-0.100000)"
fill="#000000" stroke="none">
<path d="M2223 8707 c65 -170 90 -330 67 -428 -14 -58 -19 -67 -90 -174 -127
-189 -180 -322 -187 -470 -5 -85 -2 -109 17 -164 46 -137 139 -231 303 -306
40 -18 87 -36 106 -40 l35 -7 -66 78 c-36 44 -84 108 -107 143 -111 173 -95
277 88 580 100 164 123 227 124 341 1 164 -74 308 -216 416 -59 44 -83 55 -74
31z"/>
<path d="M5625 8300 c-24 -12 -60 -46 -88 -83 -26 -34 -130 -172 -232 -306
-101 -134 -187 -246 -191 -250 -3 -3 -4 14 -1 39 5 41 11 94 22 205 2 22 7 70
11 107 8 81 -5 124 -49 165 -81 76 -202 60 -254 -34 -20 -36 -25 -62 -38 -208
-3 -33 -8 -76 -10 -95 -2 -19 -7 -66 -10 -105 -4 -38 -8 -81 -10 -95 -2 -14
-7 -60 -10 -102 -7 -72 -9 -77 -35 -86 -15 -6 -45 -27 -67 -49 l-40 -39 -39
18 c-47 21 -132 23 -177 5 -28 -12 -140 -96 -217 -163 -14 -12 -46 -40 -72
-62 l-47 -40 72 -69 c40 -38 112 -107 160 -154 96 -91 108 -120 73 -173 -32
-49 -91 -47 -148 6 -19 18 -90 85 -157 148 -68 63 -126 116 -129 117 -9 4
-330 -321 -395 -398 -26 -31 -47 -60 -47 -65 0 -5 15 -22 33 -38 120 -105 296
-281 299 -299 9 -53 -33 -107 -82 -107 -33 0 -58 17 -139 94 -41 39 -109 103
-150 142 -41 40 -80 70 -86 67 -5 -2 -26 -25 -45 -51 -19 -25 -65 -86 -102
-134 -88 -117 -208 -294 -208 -307 0 -8 246 -11 834 -11 l834 0 84 98 c121
140 200 239 305 382 51 69 98 131 104 138 6 7 24 38 40 68 42 81 38 164 -13
237 -21 29 -19 34 20 75 23 25 42 71 46 112 2 23 6 42 7 44 2 1 224 87 494
192 269 104 501 199 516 212 62 52 73 154 23 219 -38 50 -68 65 -127 66 -44 1
-100 -18 -377 -127 -463 -182 -453 -179 -438 -158 43 59 255 339 263 348 6 6
19 23 30 38 11 15 57 76 102 136 54 71 86 122 92 149 31 138 -107 245 -234
181z"/>
<path d="M2740 8052 c0 -5 9 -35 21 -68 11 -32 23 -94 26 -136 5 -70 3 -81
-22 -130 -15 -29 -38 -66 -50 -83 -33 -44 -80 -142 -99 -204 -35 -119 -12
-224 69 -306 48 -50 129 -97 190 -111 l30 -7 -28 34 c-42 53 -102 141 -115
172 -31 71 -4 161 94 324 31 52 62 118 69 147 24 104 -5 209 -82 296 -41 45
-103 89 -103 72z"/>
<path d="M813 7034 c-257 -175 -410 -484 -398 -804 4 -102 30 -234 59 -305
l15 -35 570 0 c314 0 571 4 571 8 0 4 -4 12 -9 17 -5 6 -46 80 -91 165 -46 85
-97 182 -115 215 -18 33 -101 188 -185 345 -83 157 -170 317 -192 356 -64 114
-105 121 -225 38z"/>
<path d="M7650 5334 c-685 -145 -1258 -266 -1275 -269 -29 -5 -314 -65 -500
-105 -49 -10 -132 -28 -182 -39 l-93 -19 0 222 c0 121 -4 226 -8 232 -4 6 -17
16 -29 23 -16 8 -712 11 -2742 11 -1495 0 -2727 -3 -2736 -6 -42 -17 -41 14
-40 -1554 1 -822 5 -1520 9 -1550 45 -318 281 -600 590 -704 84 -29 184 -46
262 -46 57 0 73 -3 68 -13 -6 -9 -4 -9 7 1 18 17 123 17 113 -1 -6 -9 -4 -9 7
1 7 6 37 12 67 12 40 0 51 -3 46 -12 -6 -10 -4 -10 7 0 7 6 37 12 67 12 40 0
51 -3 46 -12 -6 -10 -4 -10 7 0 18 17 123 17 113 -1 -6 -9 -4 -9 7 1 18 17
123 17 113 -1 -6 -9 -4 -9 7 1 18 17 123 17 113 -1 -6 -9 -4 -9 7 1 18 17 123
17 113 0 -6 -10 -4 -10 7 -1 18 18 123 18 113 1 -6 -10 -5 -10 7 -1 20 16 121
15 113 0 -4 -8 -2 -7 7 1 18 17 123 17 113 -1 -6 -9 -5 -9 7 0 21 17 243 18
233 1 -6 -10 -4 -11 7 -1 18 18 123 18 113 1 -6 -10 -4 -10 7 -1 18 18 163 18
153 1 -6 -10 -4 -10 7 -1 18 18 123 18 113 1 -6 -10 -5 -10 7 -1 21 17 243 18
233 1 -6 -10 -4 -11 7 -1 18 18 123 18 113 1 -6 -10 -4 -10 7 -1 18 18 123 18
113 1 -6 -10 -4 -10 7 -1 18 18 123 18 113 1 -6 -10 -4 -10 7 -1 18 18 123 18
113 0 -6 -9 -4 -9 7 0 18 18 123 18 113 1 -6 -10 -4 -10 7 -1 7 7 37 13 67 13
40 0 51 -3 46 -13 -6 -9 -4 -9 7 0 18 18 123 18 113 1 -6 -10 -4 -10 7 -1 18
18 123 18 113 1 -6 -10 -5 -10 7 -1 20 16 121 15 113 0 -4 -8 -2 -7 7 0 18 18
123 18 113 1 -6 -10 -4 -10 7 -1 18 18 123 18 113 1 -6 -10 -4 -10 7 -1 18 18
123 18 113 1 -6 -10 -4 -10 7 -1 7 7 37 13 67 13 40 0 51 -3 46 -13 -6 -9 -4
-9 7 0 18 18 123 18 113 1 -6 -10 -4 -10 7 -2 8 6 53 16 100 23 335 45 613
279 717 601 19 59 43 171 41 188 -1 4 -1 226 0 495 l1 487 105 0 c117 0 163
13 190 54 31 47 107 335 210 791 l62 280 59 21 c187 68 545 75 924 19 14 -2
50 -7 80 -10 30 -3 62 -8 70 -10 8 -2 44 -7 80 -10 36 -4 73 -9 84 -11 10 -2
51 -6 90 -10 39 -3 73 -8 76 -10 10 -5 253 -18 360 -18 407 -1 703 100 928
316 121 117 234 277 234 331 0 26 -51 253 -103 458 -16 62 -62 100 -121 98
-18 -1 -593 -120 -1278 -265z"/>
<path d="M896 1502 c-3 -5 1 -9 9 -9 8 0 12 4 9 9 -3 4 -7 8 -9 8 -2 0 -6 -4
-9 -8z"/>
<path d="M2336 1502 c-3 -5 1 -9 9 -9 8 0 12 4 9 9 -3 4 -7 8 -9 8 -2 0 -6 -4
-9 -8z"/>
<path d="M2976 1502 c-3 -5 1 -9 9 -9 8 0 12 4 9 9 -3 4 -7 8 -9 8 -2 0 -6 -4
-9 -8z"/>
<path d="M1795 1489 c-4 -6 -5 -12 -2 -15 2 -3 7 2 10 11 7 17 1 20 -8 4z"/>
<path d="M3395 1489 c-4 -6 -5 -12 -2 -15 2 -3 7 2 10 11 7 17 1 20 -8 4z"/>
<path d="M4355 1489 c-4 -6 -5 -12 -2 -15 2 -3 7 2 10 11 7 17 1 20 -8 4z"/>
<path d="M4835 1489 c-4 -6 -5 -12 -2 -15 2 -3 7 2 10 11 7 17 1 20 -8 4z"/>
<path d="M4874 1460 c0 -13 4 -16 10 -10 7 7 7 13 0 20 -6 6 -10 3 -10 -10z"/>
<path d="M2715 1449 c-4 -6 -5 -12 -2 -15 2 -3 7 2 10 11 7 17 1 20 -8 4z"/>
<path d="M830 1441 c0 -6 4 -13 10 -16 6 -3 7 1 4 9 -7 18 -14 21 -14 7z"/>
<path d="M3796 1433 c-6 -14 -5 -15 5 -6 7 7 10 15 7 18 -3 3 -9 -2 -12 -12z"/>
<path d="M606 1422 c-3 -5 1 -9 9 -9 8 0 12 4 9 9 -3 4 -7 8 -9 8 -2 0 -6 -4
-9 -8z"/>
<path d="M2330 1426 c0 -2 7 -7 16 -10 8 -3 12 -2 9 4 -6 10 -25 14 -25 6z"/>
<path d="M4016 1422 c-3 -5 1 -9 9 -9 8 0 12 4 9 9 -3 4 -7 8 -9 8 -2 0 -6 -4
-9 -8z"/>
<path d="M4685 1420 c-3 -6 1 -7 9 -4 18 7 21 14 7 14 -6 0 -13 -4 -16 -10z"/>
<path d="M1355 1411 c-3 -5 -2 -12 3 -15 5 -3 9 1 9 9 0 17 -3 19 -12 6z"/>
<path d="M2913 1405 c0 -8 4 -12 9 -9 5 3 6 10 3 15 -9 13 -12 11 -12 -6z"/>
<path d="M3273 1405 c0 -8 4 -12 9 -9 5 3 6 10 3 15 -9 13 -12 11 -12 -6z"/>
<path d="M4155 1401 c-3 -5 -2 -12 3 -15 5 -3 9 1 9 9 0 17 -3 19 -12 6z"/>
<path d="M776 1382 c-3 -5 1 -9 9 -9 8 0 12 4 9 9 -3 4 -7 8 -9 8 -2 0 -6 -4
-9 -8z"/>
<path d="M1766 1382 c-3 -5 1 -9 9 -9 8 0 12 4 9 9 -3 4 -7 8 -9 8 -2 0 -6 -4
-9 -8z"/>
<path d="M3185 1380 c-3 -6 1 -7 9 -4 18 7 21 14 7 14 -6 0 -13 -4 -16 -10z"/>
<path d="M3366 1382 c-3 -5 1 -9 9 -9 8 0 12 4 9 9 -3 4 -7 8 -9 8 -2 0 -6 -4
-9 -8z"/>
<path d="M4326 1382 c-3 -5 1 -9 9 -9 8 0 12 4 9 9 -3 4 -7 8 -9 8 -2 0 -6 -4
-9 -8z"/>
<path d="M3033 1365 c0 -8 4 -12 9 -9 5 3 6 10 3 15 -9 13 -12 11 -12 -6z"/>
<path d="M5150 1340 c0 -5 5 -10 11 -10 5 0 7 5 4 10 -3 6 -8 10 -11 10 -2 0
-4 -4 -4 -10z"/>
<path d="M869 1303 c-13 -16 -12 -17 4 -4 9 7 17 15 17 17 0 8 -8 3 -21 -13z"/>
<path d="M3269 1303 c-13 -16 -12 -17 4 -4 16 13 21 21 13 21 -2 0 -10 -8 -17
-17z"/>
<path d="M1870 1300 c0 -5 5 -10 11 -10 5 0 7 5 4 10 -3 6 -8 10 -11 10 -2 0
-4 -4 -4 -10z"/>
<path d="M3470 1300 c0 -5 5 -10 11 -10 5 0 7 5 4 10 -3 6 -8 10 -11 10 -2 0
-4 -4 -4 -10z"/>
<path d="M4426 1302 c-3 -5 1 -9 9 -9 8 0 12 4 9 9 -3 4 -7 8 -9 8 -2 0 -6 -4
-9 -8z"/>
<path d="M956 1267 c3 -10 9 -15 12 -12 3 3 0 11 -7 18 -10 9 -11 8 -5 -6z"/>
<path d="M2556 1253 c-6 -14 -5 -15 5 -6 7 7 10 15 7 18 -3 3 -9 -2 -12 -12z"/>
<path d="M5196 1227 c3 -10 9 -15 12 -12 3 3 0 11 -7 18 -10 9 -11 8 -5 -6z"/>
<path d="M2985 1220 c-3 -6 1 -7 9 -4 18 7 21 14 7 14 -6 0 -13 -4 -16 -10z"/>
<path d="M3346 1222 c-3 -5 1 -9 9 -9 8 0 12 4 9 9 -3 4 -7 8 -9 8 -2 0 -6 -4
-9 -8z"/>
<path d="M1030 1156 c0 -2 8 -10 18 -17 15 -13 16 -12 3 4 -13 16 -21 21 -21
13z"/>
<path d="M3590 1060 c0 -5 5 -10 11 -10 5 0 7 5 4 10 -3 6 -8 10 -11 10 -2 0
-4 -4 -4 -10z"/>
<path d="M3940 1066 c0 -2 8 -10 18 -17 15 -13 16 -12 3 4 -13 16 -21 21 -21
13z"/>
<path d="M4075 1060 c-3 -5 -1 -10 4 -10 6 0 11 5 11 10 0 6 -2 10 -4 10 -3 0
-8 -4 -11 -10z"/>
<path d="M2544 1022 c4 -3 14 -7 22 -8 9 -1 13 0 10 4 -4 3 -14 7 -22 8 -9 1
-13 0 -10 -4z"/>
<path d="M3187 1019 c7 -7 15 -10 18 -7 3 3 -2 9 -12 12 -14 6 -15 5 -6 -5z"/>
<path d="M990 996 c0 -2 8 -10 18 -17 15 -13 16 -12 3 4 -13 16 -21 21 -21 13z"/>
<path d="M3710 916 c0 -2 8 -10 18 -17 15 -13 16 -12 3 4 -13 16 -21 21 -21
13z"/>
<path d="M4310 796 c0 -2 8 -10 18 -17 15 -13 16 -12 3 4 -13 16 -21 21 -21
13z"/>
<path d="M980 746 c0 -2 8 -10 18 -17 15 -13 16 -12 3 4 -13 16 -21 21 -21 13z"/>
<path d="M1559 733 c-13 -16 -12 -17 4 -4 16 13 21 21 13 21 -2 0 -10 -8 -17
-17z"/>
<path d="M3540 746 c0 -2 8 -10 18 -17 15 -13 16 -12 3 4 -13 16 -21 21 -21
13z"/>
<path d="M146 662 c-2 -4 4 -8 14 -8 10 0 16 4 14 8 -3 4 -9 8 -14 8 -5 0 -11
-4 -14 -8z"/>
<path d="M3827 659 c7 -7 15 -10 18 -7 3 3 -2 9 -12 12 -14 6 -15 5 -6 -5z"/>
<path d="M1995 620 c-3 -5 -1 -10 4 -10 6 0 11 5 11 10 0 6 -2 10 -4 10 -3 0
-8 -4 -11 -10z"/>
<path d="M2115 620 c3 -5 8 -10 11 -10 2 0 4 5 4 10 0 6 -5 10 -11 10 -5 0 -7
-4 -4 -10z"/>
<path d="M3230 619 c0 -5 5 -7 10 -4 6 3 10 8 10 11 0 2 -4 4 -10 4 -5 0 -10
-5 -10 -11z"/>
<path d="M3310 619 c0 -5 5 -7 10 -4 6 3 10 8 10 11 0 2 -4 4 -10 4 -5 0 -10
-5 -10 -11z"/>
<path d="M3635 620 c3 -5 8 -10 11 -10 2 0 4 5 4 10 0 6 -5 10 -11 10 -5 0 -7
-4 -4 -10z"/>
<path d="M3790 620 c0 -5 5 -10 11 -10 5 0 7 5 4 10 -3 6 -8 10 -11 10 -2 0
-4 -4 -4 -10z"/>
<path d="M4675 620 c3 -5 8 -10 11 -10 2 0 4 5 4 10 0 6 -5 10 -11 10 -5 0 -7
-4 -4 -10z"/>
<path d="M4755 620 c-3 -5 -1 -10 4 -10 6 0 11 5 11 10 0 6 -2 10 -4 10 -3 0
-8 -4 -11 -10z"/>
<path d="M4830 620 c0 -5 5 -10 11 -10 5 0 7 5 4 10 -3 6 -8 10 -11 10 -2 0
-4 -4 -4 -10z"/>
<path d="M4910 619 c0 -5 5 -7 10 -4 6 3 10 8 10 11 0 2 -4 4 -10 4 -5 0 -10
-5 -10 -11z"/>
<path d="M1955 580 c3 -5 8 -10 11 -10 2 0 4 5 4 10 0 6 -5 10 -11 10 -5 0 -7
-4 -4 -10z"/>
<path d="M3270 579 c0 -5 5 -7 10 -4 6 3 10 8 10 11 0 2 -4 4 -10 4 -5 0 -10
-5 -10 -11z"/>
<path d="M3830 579 c0 -5 5 -7 10 -4 6 3 10 8 10 11 0 2 -4 4 -10 4 -5 0 -10
-5 -10 -11z"/>
<path d="M554 546 c1 -8 5 -18 8 -22 4 -3 5 1 4 10 -1 8 -5 18 -8 22 -4 3 -5
-1 -4 -10z"/>
<path d="M1516 547 c3 -10 9 -15 12 -12 3 3 0 11 -7 18 -10 9 -11 8 -5 -6z"/>
<path d="M3114 546 c1 -8 5 -18 8 -22 4 -3 5 1 4 10 -1 8 -5 18 -8 22 -4 3 -5
-1 -4 -10z"/>
<path d="M3590 541 c0 -6 4 -12 8 -15 5 -3 9 1 9 9 0 8 -4 15 -9 15 -4 0 -8
-4 -8 -9z"/>
</g>
</svg>
